<?xml version="1.0" encoding="utf-8"?>
<!-- Generator: Adobe Illustrator 24.3.0, SVG Export Plug-In . SVG Version: 6.00 Build 0)  -->
<svg version="1.1" id="Layer_1" xmlns="http://www.w3.org/2000/svg" xmlns:xlink="http://www.w3.org/1999/xlink" x="0px" y="0px"
	 viewBox="0 0 2000 2000" style="enable-background:new 0 0 2000 2000;" xml:space="preserve">
<style type="text/css">
	.st0{display:none;fill:#353431;}
	.st1{display:none;fill:#202020;}
	.st2{display:none;fill:#FFFFFF;}
	.st3{display:none;fill:#807E83;}
	.st4{display:none;fill:#1F1F1F;}
	.st5{display:none;fill:#0F0F0F;}
	.st6{display:none;fill:#D71316;}
	.st7{fill:#E94E22;}
	.st8{fill:#6C1710;}
	.st9{fill:#202020;}
	.st10{fill:#353431;}
	.st11{display:none;fill:#D71416;}
	.st12{display:none;}
	.st13{display:inline;}
	.st14{fill:#1F1F1F;}
</style>
<g>
	<path class="st0" d="M1063.69,1997.2c-440.47,23.24-868.24-250.65-1010.57-673.97c-99.8-296.82-52.02-638.6,126.82-895.85
		C343.17,192.6,610.74,39.28,893.96,7.77c291.88-32.47,589.09,72.65,800.12,275.88c158.3,152.44,258.56,354.29,295.6,570.14
		c2.07,12.04,3.81,24.14,5.69,36.21c0.21,6.65,0.41,13.3,0.62,19.95c0,7.9,0,15.79,0,23.69c-4.41-32.27-7.85-64.41-12.58-96.36
		c-1.62-10.9-0.37-23-10.99-31.66c-94.9-77.33-188.36-156.46-282.62-234.57c-19.19-15.9-38.63-31.5-57.96-47.24
		c-3.47-3.82-6.94-7.63-10.41-11.45c-0.4-1.57-0.42-3.4-1.27-4.67c-145.79-216.88-372.99-362.15-641.31-355.37
		c-232.28,5.87-458.3,131.75-585.6,326.13c-155.91,238.08-157.81,569.45,9.66,801.51c145.07,201.02,332.33,366.06,517.37,529.02
		c23.43,20.64,49.91,42.47,81.14,42.25c6.2-0.04,12.42-0.98,18.58-0.13c38.19,5.27,78.62,66.31,105.44,91.96
		c14.64,14,28.93,28.38,43.36,42.59c-8.48,1.49-16.92,3.35-25.45,4.39C1115.78,1993.41,1089.6,1995.84,1063.69,1997.2z"/>
	<path class="st1" d="M1171.36,1977.43c-1.28-0.37-2.56-0.79-3.82-1.26c-13.72-5.06-24.84-15.23-35.49-25.26
		c-34.08-32.09-67.29-65.09-99.6-98.96c131.26-117.66,258.89-239.37,382.64-364.9c107.33-108.88,214.34-224.69,268.06-367.84
		c39.01-103.97,46.61-217.52,30.69-326.92c-8.16-56.09-22.4-111.26-41.74-164.52c-4.76-13.11-34.93-64.55-29.58-76.17
		c13.06-28.31,86.81,46.55,97.31,56.81c44.32,43.31,92.37,82.57,140.76,121.2c40.98,32.72,87.59,66.18,108.01,116.44
		c23.09,56.81,15.79,121.32,7.71,180.43c-20.55,150.21-49.16,298.79-118.68,434.82c-61.94,121.21-148.88,229.62-253.76,316.4
		c-62.95,52.09-134.81,97.85-209.97,132.78c-39.03,18.14-79.29,33.63-120.45,46.2C1258.13,1967.46,1208.52,1988.25,1171.36,1977.43z
		"/>
	<path class="st2" d="M1695.41,1718.22c32.79-31.34,63.69-65.34,92.49-102.11c122.47-156.36,191.53-344,211.01-540.74
		c23.08,303.41,1.09,619.35,1.09,924.63c-312,0-624,0-936,0c3.29-0.67,6.54-1.57,9.86-1.96c23.22-2.7,46.47-5.16,69.67-8
		c8.53-1.04,16.96-2.9,25.45-4.39c15.05-2.58,30.38-4.07,45.08-7.93C1396.33,1929.88,1561.59,1846.14,1695.41,1718.22z"/>
	<path class="st2" d="M1694.17,1716.96c65.04-62.82,122.2-133.76,169.91-212.95c0,0-0.07,0.07-0.07,0.07
		c3.36-6.02,6.71-12.05,10.07-18.07c0,0-0.07,0.07-0.07,0.07c5.36-10.02,10.71-20.05,16.07-30.07c0,0-0.07,0.07-0.07,0.07
		c4.36-8.07,9.4-15.86,12.95-24.27c14.62-34.64,30.44-68.91,42.67-104.4c12.23-35.5,21.26-72.16,30.69-108.57
		c10.94-42.22,17.42-85.24,19.96-128.82c0.57-5.38,1.03-10.78,1.76-16.14c0.45-3.33,1.29-6.6,1.96-9.9c0,312,0,624,0,936
		c-312,0-624,0-936,0c3.29-0.67,6.54-1.57,9.86-1.96c23.22-2.7,46.47-5.16,69.67-8c8.53-1.04,16.96-2.9,25.45-4.39
		c15.05-2.58,30.38-4.07,45.08-7.93c38.25-10.04,76.77-19.52,114.15-32.25c34.17-11.63,67.29-26.55,100.29-41.32
		c23.46-10.5,46.82-21.77,68.68-35.2C1568.65,1825.02,1634.71,1774.39,1694.17,1716.96z"/>
	<path class="st2" d="M1696.82,1719.71c6.96-6.97,13.93-13.93,20.89-20.9c1.69-2.36,3.38-4.73,5.07-7.09
		c6.31-6.3,12.62-12.61,18.93-18.91c1.69-2.36,3.38-4.73,5.07-7.09c2.97-2.97,5.95-5.94,8.93-8.91c1.69-2.36,3.38-4.73,5.07-7.09
		c2.31-2.3,4.62-4.61,6.93-6.91c1.69-2.36,3.38-4.73,5.07-7.09c0.97-0.97,1.95-1.94,2.93-2.91c1.69-2.36,3.38-4.73,5.07-7.09
		c0.97-0.97,1.95-1.94,2.93-2.91c1.69-2.36,3.38-4.73,5.07-7.09c0.57-0.04,0.88-0.34,0.93-0.91c1.69-2.36,3.38-4.73,5.07-7.09
		c0.97-0.97,1.95-1.94,2.92-2.91c1.46-2.27,2.92-4.54,4.37-6.81l-0.07,0.08c1.59-2.12,3.19-4.24,4.78-6.36
		c0.57-0.04,0.88-0.34,0.92-0.91c1.69-2.36,3.38-4.73,5.07-7.09c0.57-0.04,0.88-0.34,0.92-0.91c1.46-2.27,2.92-4.54,4.37-6.81
		c0,0-0.07,0.08-0.07,0.08c1.36-2.02,2.71-4.05,4.07-6.07c0,0-0.07,0.07-0.07,0.07c1.36-2.02,2.71-4.05,4.07-6.07
		c0,0-0.07,0.07-0.07,0.07c1.36-2.02,2.71-4.05,4.07-6.07c0,0-0.07,0.07-0.07,0.07c1.36-2.02,2.71-4.05,4.07-6.07
		c0,0-0.07,0.07-0.07,0.07c1.36-2.02,2.71-4.05,4.07-6.07c0,0-0.07,0.07-0.07,0.07c1.36-2.02,2.71-4.05,4.07-6.07
		c0,0-0.07,0.07-0.07,0.07c1.36-2.02,2.71-4.05,4.07-6.07c0,0-0.07,0.07-0.07,0.07c2.02-3.36,4.05-6.72,6.07-10.07
		c0,0-0.07,0.07-0.07,0.07c2.02-3.36,4.05-6.72,6.07-10.07c0,0-0.07,0.07-0.07,0.07c2.02-3.36,4.05-6.72,6.07-10.07
		c0,0-0.07,0.07-0.07,0.07c3.36-6.02,6.71-12.05,10.07-18.07c0,0-0.07,0.07-0.07,0.07c5.36-10.02,10.71-20.05,16.07-30.07
		c0,0-0.07,0.07-0.07,0.07c4.36-8.07,9.4-15.86,12.95-24.27c14.62-34.64,30.44-68.91,42.67-104.4
		c12.23-35.5,21.26-72.16,30.69-108.57c10.94-42.22,17.42-85.24,19.96-128.82c0.57-5.38,1.03-10.78,1.76-16.14
		c0.45-3.33,1.29-6.6,1.96-9.9c0,312,0,624,0,936c-312,0-624,0-936,0c3.29-0.67,6.54-1.57,9.86-1.96c23.22-2.7,46.47-5.16,69.67-8
		c8.53-1.04,16.96-2.9,25.45-4.39c15.05-2.58,30.38-4.07,45.08-7.93c38.25-10.04,76.77-19.52,114.15-32.25
		c34.17-11.63,67.29-26.55,100.29-41.32c23.46-10.5,46.82-21.77,68.68-35.2c33.21-20.41,65.69-42.17,97.33-64.94
		c22.99-16.55,44.3-35.46,66.04-53.71c10.85-9.1,20.99-19.06,31.44-28.63C1693.61,1721.01,1695.22,1720.36,1696.82,1719.71z"/>
	<path class="st2" d="M936,0c-1.31,0.66-2.56,1.76-3.93,1.93C897.71,6,863.05,8.35,829.05,14.41
		c-37.77,6.73-75.16,15.98-112.32,25.68c-52.56,13.73-102.46,34.77-151.5,57.96c-59.27,28.02-115.03,62.03-167.17,101.5
		c-30.53,23.12-58.64,49.48-87.39,74.89c-39.77,35.15-73.58,75.69-105.93,117.62c-35.72,46.29-66.68,95.42-93.54,147.35
		c-25.25,48.8-47.65,98.8-63.07,151.49c-12.76,43.62-24.06,87.75-33.65,132.17c-5.82,26.99-7.12,54.95-10.51,82.48
		C2.73,915.71,1.33,925.85,0,936C0,624.17,0,312.33,0,0C312,0,624,0,936,0z"/>
	<path class="st2" d="M0,1064c0.66,1.31,1.76,2.56,1.93,3.93c4.08,34.36,6.42,69.02,12.48,103.02
		c6.73,37.77,15.98,75.16,25.68,112.32c13.73,52.56,34.77,102.46,57.96,151.5c28.03,59.27,62.03,115.03,101.5,167.17
		c23.12,30.53,49.48,58.64,74.89,87.39c35.15,39.77,75.69,73.58,117.62,105.93c46.29,35.72,95.42,66.68,147.35,93.54
		c48.8,25.25,98.8,47.65,151.49,63.07c43.62,12.76,87.75,24.06,132.17,33.64c26.99,5.82,54.95,7.12,82.48,10.51
		c10.16,1.25,20.3,2.65,30.45,3.98c-311.83,0-623.67,0-936,0C0,1688,0,1376,0,1064z"/>
	<path class="st2" d="M1996,889.99c-2.22-12.07-3.96-24.17-6.03-36.21c-3.89-22.68-6.68-45.66-12.27-67.93
		c-9.47-37.8-19.08-75.72-31.75-112.51c-12.34-35.86-27.96-70.65-43.24-105.43c-22.82-51.94-52.71-100.01-85.07-146.39
		c-16.94-24.28-36-47.19-55.22-69.77c-19.65-23.07-39.34-46.4-61.41-67.05c-29.62-27.72-61.09-53.51-92.57-79.16
		c-46.11-37.57-96.37-69.1-149.74-95.12c-38.75-18.89-78.2-36.78-118.57-51.8c-36.74-13.67-74.86-23.94-112.9-33.65
		c-26.63-6.79-54.03-10.89-81.29-14.75c-26.21-3.71-52.69-5.55-79.03-8.32c-1.03-0.11-1.95-1.24-2.93-1.9h936v850
		c-1.08-2.14-2.15-4.28-4-8.61V889.99z"/>
	<path class="st3" d="M1996,889.99c0-15.38,0-30.76,0-48.6c2.01,4.33,3.01,6.47,4,8.61c0,28.67,0,57.33,0,86
		c-0.61-5.29-1.17-10.59-1.85-15.87c-0.44-3.41-1.05-6.79-1.58-10.19C1996.38,903.29,1996.19,896.64,1996,889.99z"/>
	<path class="st4" d="M1020.02,1847.34c-27.61,17.55-59.46-6.68-80.04-23.68c-164.89-136.18-321.95-282.8-460.15-446.31
		c-68.41-80.93-127.64-171.13-166.36-270.13c-107.31-274.38-1.28-589.25,215.41-778.03c145.26-126.55,342.55-194.12,535.75-175.28
		c188.54,18.39,366.12,117.65,488.32,261.15c25.08,29.45,47.86,60.84,68.1,93.8c-10.9-17.74-43.47-32.65-60.11-45.04
		c-82.7-61.61-153.67-137.4-244.63-187.71c-175.14-96.87-393.39-110.18-577.56-30.25c-169.21,73.44-312.48,218.72-379.08,391.22
		c-72.54,187.91-50.24,405.33,51.85,578.31c104.88,177.72,273.47,326.57,425.93,462.52
		C851.41,1690.34,1019.78,1847.49,1020.02,1847.34z"/>
	<path class="st5" d="M1496.92,413.56c7.99,5.49,16.44,10.43,23.91,16.55c32.05,26.29,63.8,52.95,95.71,79.41
		c1.48,1.22,3.41,1.89,5.17,2.84c32.97,17.85,49.98,93.18,61.81,126.11c18.39,51.22,30.9,104.54,37.47,158.56
		c19.19,157.86-13.86,309.02-94.49,445.21c-72.55,122.55-172.1,226.31-275.75,322.86c-70.67,65.83-144,128.73-215.13,194.05
		c-27.06,24.85-53.87,49.96-80.71,75.04c-8.4,7.85-18.16,11.94-29.13,13.94c-1.07-0.27-2.14-0.54-3.2-0.81
		c-11.94-11.84-23.95-23.62-35.71-35.63c-1.06-1.08-0.58-3.68-0.82-5.58c20.13,6.78,36.48,0.88,51.54-13.48
		c49.65-47.34,99.91-94.03,149.67-141.27c196.5-186.54,441.2-379.02,487.75-664.94c23.81-146.27-6.9-297.99-76.93-427.79
		c-20.4-37.8-44.11-73.82-70.77-107.5C1517.29,438.51,1507.05,426.08,1496.92,413.56z"/>
	<path class="st6" d="M1996,1090.03c-2.54,43.58-9.01,86.6-19.96,128.82c-9.44,36.41-18.46,73.06-30.69,108.57
		c-12.23,35.49-28.05,69.75-42.67,104.4c-3.55,8.41-8.59,16.2-12.95,24.27c2.81-7.69,5.38-15.47,8.46-23.04
		c16.16-39.82,34.09-79.02,48.27-119.53c17.46-49.86,29.9-101.28,37.26-153.73c4.35-31,7.99-62.11,12.28-95.77
		C1996,1074.28,1996,1082.16,1996,1090.03z"/>
	<path class="st6" d="M1890.09,1456.01c-5.36,10.02-10.71,20.05-16.07,30.07C1879.37,1476.06,1884.73,1466.03,1890.09,1456.01z"/>
	<path class="st6" d="M1874.09,1486.01c-3.36,6.02-6.71,12.05-10.07,18.07C1867.37,1498.06,1870.73,1492.03,1874.09,1486.01z"/>
	<path class="st6" d="M1852.09,1524.01c-2.02,3.36-4.05,6.72-6.07,10.07C1848.04,1530.72,1850.06,1527.37,1852.09,1524.01z"/>
	<path class="st6" d="M1864.09,1504.01c-2.02,3.36-4.05,6.72-6.07,10.07C1860.04,1510.72,1862.06,1507.37,1864.09,1504.01z"/>
	<path class="st6" d="M1858.09,1514.01c-2.02,3.36-4.05,6.72-6.07,10.07C1854.04,1520.72,1856.06,1517.37,1858.09,1514.01z"/>
	<path class="st6" d="M1846.09,1534.01c-1.36,2.02-2.71,4.05-4.07,6.07C1843.37,1538.06,1844.73,1536.03,1846.09,1534.01z"/>
	<path class="st6" d="M1842.09,1540.01c-1.36,2.02-2.71,4.05-4.07,6.07C1839.37,1544.06,1840.73,1542.03,1842.09,1540.01z"/>
	<path class="st6" d="M1838.09,1546.01c-1.36,2.02-2.71,4.05-4.07,6.07C1835.37,1550.06,1836.73,1548.03,1838.09,1546.01z"/>
	<path class="st6" d="M1834.09,1552.01c-1.36,2.02-2.71,4.05-4.07,6.07C1831.37,1556.06,1832.73,1554.03,1834.09,1552.01z"/>
	<path class="st6" d="M1830.09,1558.01c-1.36,2.02-2.71,4.05-4.07,6.07C1827.37,1562.06,1828.73,1560.03,1830.09,1558.01z"/>
	<path class="st6" d="M1826.09,1564.01c-1.36,2.02-2.71,4.05-4.07,6.07C1823.37,1568.06,1824.73,1566.03,1826.09,1564.01z"/>
	<path class="st6" d="M1822.09,1570.01c-1.36,2.02-2.71,4.05-4.07,6.07C1819.37,1574.06,1820.73,1572.03,1822.09,1570.01z"/>
	<path class="st6" d="M1818.09,1576.01c-1.46,2.27-2.91,4.54-4.37,6.81C1815.17,1580.55,1816.63,1578.28,1818.09,1576.01z"/>
	<path class="st6" d="M1812.79,1583.72c-1.69,2.36-3.38,4.72-5.07,7.09C1809.41,1588.45,1811.1,1586.09,1812.79,1583.72z"/>
	<path class="st6" d="M1802.09,1598.01c-1.46,2.27-2.91,4.54-4.37,6.81C1799.17,1602.55,1800.63,1600.28,1802.09,1598.01z"/>
	<path class="st6" d="M1794.79,1607.72c-1.69,2.36-3.38,4.72-5.07,7.09C1791.41,1612.45,1793.1,1610.09,1794.79,1607.72z"/>
	<path class="st6" d="M1788.79,1615.72c-1.69,2.36-3.38,4.72-5.07,7.09C1785.41,1620.45,1787.1,1618.09,1788.79,1615.72z"/>
	<path class="st6" d="M1780.79,1625.72c-1.69,2.36-3.38,4.72-5.07,7.09C1777.41,1630.45,1779.1,1628.09,1780.79,1625.72z"/>
	<path class="st6" d="M1806.8,1591.72c-1.59,2.12-3.19,4.24-4.78,6.36C1803.61,1595.96,1805.2,1593.84,1806.8,1591.72z"/>
	<path class="st6" d="M1760.79,1649.72c-1.69,2.36-3.38,4.72-5.07,7.09C1757.41,1654.45,1759.1,1652.09,1760.79,1649.72z"/>
	<path class="st6" d="M1746.79,1665.72c-1.69,2.36-3.38,4.72-5.07,7.09C1743.41,1670.45,1745.1,1668.09,1746.79,1665.72z"/>
	<path class="st6" d="M1722.79,1691.72c-1.69,2.36-3.38,4.72-5.07,7.09C1719.41,1696.45,1721.1,1694.09,1722.79,1691.72z"/>
	<path class="st6" d="M1772.79,1635.72c-1.69,2.36-3.38,4.72-5.07,7.09C1769.41,1640.45,1771.1,1638.09,1772.79,1635.72z"/>
	<path class="st6" d="M1696.82,1719.71c-1.61,0.65-3.22,1.31-4.82,1.96C1693.61,1721.01,1695.22,1720.36,1696.82,1719.71z"/>
	<path class="st7" d="M1495.91,414.78c5.69,5.26,11.45,10.57,16.32,16.4c2.88,3.44,15.06,16.45,15.06,19.96
		c108.08,136.53,165.11,301.56,154.27,476.23c-13.44,216.46-142.92,381.09-291.52,527.58
		c-115.81,114.18-234.65,225.34-352.47,337.69c-15.06,14.36-31.4,20.26-51.55,13.48c-14.9-5.03-25.5-20.67-36.59-31
		c-156.02-145.29-323.5-274.36-454.44-444.83c-14.91-19.41-29.32-39.21-43.15-59.4c-4.68-6.84-10.5-13.81-14.21-21.23
		c-74.8-114.39-123.64-245.26-119.79-383.39c1.95-69.93,15.13-139.22,36.11-205.86C399.06,517.04,499.93,406.69,616.09,316
		c117.01-91.35,270.24-131.97,417.43-121.88c90.52,6.21,179.12,31.87,260.2,72.31c3.6,1.8,7.18,3.62,10.76,5.47
		c52.37,27.16,101.64,59.71,145.53,99.25c13.15,11.85,25.81,24.23,38.46,36.61C1490.89,410.12,1493.39,412.44,1495.91,414.78z
		 M1471.94,644.98l0.04,0.09c-9.02-16.95-16.66-34.84-27.34-50.68c-101.97-151.23-281.42-245.3-464.59-233.47
		c-191.02,12.33-364.89,129.76-446.3,303.12c-31.41,66.88-48.22,140.43-47.98,214.37c0.22,66.65,14.11,133.43,43.05,193.61
		c1.49,3.1,5.03,6.58,8.1,7.13c2.47,0.44,6.91-2.64,8.37-5.3c17.57-32,40.94-59.36,66.28-85.31c2.72-2.79,4.38-9.67,2.88-13.01
		c-8.46-18.79,2.4-37.93,14.66-46.49c44.2-30.87,88.54-61.53,132.66-92.51c32.78-23.02,65.24-46.47,97.93-69.61
		c30.5-21.59,61.07-43.09,91.73-64.46c6.49-4.53,14.3-6.89,21.37-2.63c7.71,4.65,14.92,10.5,21.31,16.87
		c6.48,6.46,12,9.8,20.52,3.29c52.95-40.45,109.73-75.69,165.9-111.42c44.82-28.52,105.82-84.62,162.82-57.98
		c10.24,4.79,18.27,10.04,23.86,19.46c1.76,5.01,4.03,9.9,5.18,15.04c2.5,11.19-0.6,21.15-6.42,31.03
		c-5.4,9.18-13.52,5.94-21.01,7.28c-11.91,2.14-24.72,3.45-35.09,8.98c-18.03,9.62-34.67,21.93-51.58,33.58
		c-60.67,41.82-121.18,83.88-181.82,125.76c-14.14,9.77-14.33,10.71-8.16,26.73c69.94,181.5-134.57,321.81-296.78,273.14
		c-19.17-5.75-37.6-13.98-54.52-24.69c-9.18-5.81-15.96-4.66-23.5,3.37c-23.75,25.26-44.78,52.49-59.48,83.93
		c-8.83,18.86-17.22,39.35-9.05,60.16c16.3,41.47,47.84,74.22,79.21,104.8c93.1,90.75,182.01,185.43,278.47,272.74
		c9.84,8.91,14.88,8.94,25.64,1.46c3.26-2.27,6.24-4.98,9.13-7.72c14.76-13.93,29.43-27.96,44.19-41.9
		c72.09-68.07,144.04-136.01,215.85-204.01c68.25-64.63,130.89-136.47,176.45-219.11c68.86-124.9,91.71-274.97,45.32-411.46
		c-6.89-20.27-16.78-39.51-25.29-59.23C1473.3,648.27,1472.62,646.62,1471.94,644.98z M862.46,1049.57
		c28.16-0.64,53.36-8.36,75.57-25.54c21.52-16.64,37.14-37.79,49.91-61.5c11.16-20.73,17.21-42.43,14.08-66.03
		c-2.38-18.01-10.81-23-28.61-18.15c-11.33,3.08-22.71,6.25-34.26,8.2c-13.88,2.34-24.69,7.18-31.37,21.04
		c-5.77,11.99-16.14,21.3-30.2,21.7c-11.38,0.32-18.78,5.86-23.41,14.25c-6.46,11.69-16.21,15.97-28.24,19.16
		c-12.84,3.41-24.67,9.15-32.21,21.71c-4.33,7.21-10.41,13.7-16.81,19.25c-9.66,8.38-10.16,9.09-0.69,17.5
		c2.22,1.98,4.64,3.8,7.16,5.37C807.7,1041.72,834.46,1048.51,862.46,1049.57z"/>
	<path class="st8" d="M1497.79,412.65c-0.69-0.05-1.37-0.09-2.06-0.14C1496.42,412.56,1497.1,412.61,1497.79,412.65z"/>
	<path class="st9" d="M1473.98,646.91c8.52,19.71,18.41,38.96,25.29,59.23c43.55,128.15,27.5,272.63-33.9,392.19
		c-91.3,177.8-261.08,307.7-403.72,442.39c-14.76,13.94-29.42,27.97-44.19,41.9c-2.9,2.73-5.88,5.45-9.13,7.72
		c-10.76,7.48-15.8,7.44-25.64-1.46c-21.22-19.21-42.6-38.27-63.06-58.26c-91.6-89.5-185.06-181.28-269.85-279.12
		c-10.21-11.78-19.1-25.72-24.78-40.17c-8.17-20.8,0.22-41.29,9.05-60.15c14.71-31.43,35.73-58.66,59.48-83.93
		c7.54-8.02,14.32-9.18,23.5-3.37c72.1,45.61,170.16,45.6,245.52,8.93c92.25-44.89,143.09-160.54,105.78-257.38
		c-6.17-16.02-5.98-16.96,8.16-26.73c60.64-41.87,121.15-83.93,181.82-125.76c16.9-11.65,33.54-23.96,51.58-33.58
		c10.37-5.53,23.18-6.83,35.09-8.98c7.49-1.35,15.61,1.9,21.01-7.28c5.82-9.88,8.92-19.84,6.42-31.03
		c-1.15-5.14-3.42-10.03-5.17-15.04c3.79-7.09,7.97-3.73,11.98-0.35c27.38,23.09,54.67,46.28,82.14,69.27
		c3.08,2.58,7.06,4.1,10.62,6.11c0,0-0.04-0.09-0.04-0.09C1472.62,643.62,1473.3,645.27,1473.98,646.91z M1337.03,698.41
		c-1.21-0.22-2.41-0.44-3.62-0.66c-3.52,8.9-7.07,17.79-10.54,26.7c-1.66,4.26-3.1,8.6-4.79,12.85c-2.19,5.5-4.92,10.81-6.72,16.43
		c-6.52,20.45-12.05,41.24-19.26,61.43c-8.65,24.22-15.09,47.42,2.56,70.94c11.68,15.57,26.16,23.18,45.27,21.87
		c19.09-1.31,32.09-11.4,39.78-28.79c8.03-18.15,5.43-36.6,0.96-54.78c-4.04-16.44-11.82-32.27-13.71-48.85
		C1363.66,746.68,1347.83,723.74,1337.03,698.41z"/>
	<path class="st10" d="M1471.98,642.07c-3.56-2.01-7.54-3.53-10.62-6.11c-27.47-22.99-54.76-46.18-82.14-69.27
		c-4.01-3.38-8.19-6.75-11.98,0.35c-5.6-9.41-13.62-14.67-23.87-19.45c-32.51-15.19-60.13-0.73-86.74,13.41
		c-75.85,40.3-145.93,92.09-217.26,139.72c-8.21,5.48-16.9,10.3-24.72,16.27c-8.52,6.51-14.05,3.17-20.52-3.29
		c-6.38-6.37-13.59-12.22-21.31-16.87c-7.07-4.26-14.88-1.9-21.37,2.63c-30.66,21.37-61.23,42.87-91.73,64.46
		c-76.7,54.29-153.55,108.32-230.59,162.12c-12.26,8.56-23.12,27.7-14.66,46.49c1.5,3.34-0.16,10.22-2.88,13.01
		c-25.34,25.96-48.71,53.31-66.28,85.31c-1.46,2.67-5.9,5.74-8.37,5.3c-3.08-0.55-6.61-4.03-8.1-7.13
		c-16.22-33.72-27.06-69.24-32.11-106.23c-20.57-150.63,9.31-299.62,107.15-419.98c89.63-110.27,226.28-180.98,368.06-190.47
		c190.35-12.73,367.4,82.85,472.72,239.05C1455.32,607.22,1462.96,625.11,1471.98,642.07z"/>
	<path class="st10" d="M862.46,1049.57c-28-1.06-54.76-7.84-79.08-23.03c-2.52-1.58-4.94-3.4-7.16-5.37
		c-9.47-8.42-8.97-9.12,0.69-17.5c6.39-5.54,12.48-12.04,16.81-19.25c7.54-12.56,19.37-18.29,32.21-21.71
		c12.03-3.2,21.78-7.47,28.24-19.16c4.64-8.39,12.04-13.93,23.41-14.25c14.06-0.39,24.43-9.71,30.2-21.7
		c6.67-13.86,17.49-18.7,31.37-21.04c11.56-1.95,22.93-5.12,34.26-8.2c17.81-4.84,26.23,0.15,28.61,18.15
		c3.12,23.6-2.92,45.3-14.08,66.03c-12.77,23.71-28.39,44.86-49.91,61.5C915.82,1041.21,890.62,1048.93,862.46,1049.57z"/>
	<path class="st11" d="M1473.98,646.91c-0.68-1.64-1.36-3.29-2.04-4.93C1472.62,643.62,1473.3,645.27,1473.98,646.91z"/>
	<path class="st7" d="M1337.03,698.41c10.8,25.33,26.63,48.28,29.92,77.12c1.9,16.58,9.68,32.42,13.71,48.85
		c4.47,18.18,7.07,36.62-0.96,54.78c-7.69,17.38-20.68,27.47-39.78,28.79c-19.12,1.32-33.59-6.3-45.27-21.87
		c-17.65-23.52-11.21-46.72-2.56-70.94c7.21-20.19,12.74-40.98,19.26-61.43c1.79-5.62,4.53-10.93,6.72-16.43
		c1.69-4.25,3.13-8.59,4.79-12.85c3.48-8.92,7.03-17.8,10.54-26.7C1334.62,697.97,1335.82,698.19,1337.03,698.41z"/>
</g>
<g class="st12">
	<g class="st13">
		<path class="st14" d="M1276.2,1902.22c3.22,0,3.22-5,0-5C1272.98,1897.22,1272.98,1902.22,1276.2,1902.22L1276.2,1902.22z"/>
	</g>
</g>
<g class="st12">
	<g class="st13">
		<path class="st10" d="M162.65,1529.69c3.01,14.82,10.98,27.94,18.89,40.61c1.39,2.23,2.8,4.45,4.35,6.58
			c0.89,1.22,1.81,2.53,2.96,3.54c1.19,1.04,2.77,1.81,4.3,0.89c1.26-0.75,1.62-2.24,1.54-3.61c-0.16-3.07-1.22-6.15-2.16-9.05
			c-1.44-4.47-3.1-8.87-4.83-13.23c-2.05-5.17-4.22-10.29-6.49-15.37c-2.06-4.58-4.2-9.13-6.54-13.58
			c-1.71-3.26-3.49-6.55-5.77-9.45c-0.68-0.86-1.43-1.71-2.39-2.25c-1.56-0.88-3.56-0.51-4.51,1.08c-1.61,2.71-0.53,7.04-0.07,9.89
			C162.15,1527.06,162.39,1528.37,162.65,1529.69c0.26,1.32,1.84,2.09,3.08,1.75c1.38-0.38,2.01-1.75,1.75-3.08
			c-0.26-1.31-0.51-2.63-0.72-3.95c-0.08-0.49-0.15-0.98-0.22-1.47c-0.09-0.64,0.07,0.61-0.02-0.19c-0.03-0.26-0.06-0.53-0.09-0.79
			c-0.08-0.75-0.14-1.51-0.15-2.27c0-0.27,0-0.54,0.01-0.81c0.01-0.13,0.02-0.26,0.03-0.38c0.02-0.63-0.17,0.58-0.03,0.22
			c0.05-0.14,0.1-0.35,0.12-0.5c0.04-0.46-0.4,0.69-0.04,0.15c-0.17,0.25-0.51,0.59-0.62,0.65c0.02-0.01-0.8,0.29-0.46,0.2
			c0.15-0.04-0.9,0.07-0.46,0.08c-0.92-0.03-0.74-0.13-0.47-0.05c0.39,0.11-0.72-0.31-0.39-0.17c0.05,0.02,0.39,0.25,0.39,0.25
			c-0.14,0.15-0.63-0.58-0.26-0.19c0.07,0.07,0.15,0.14,0.22,0.21c0.17,0.16,0.32,0.33,0.47,0.5c0.18,0.2,0.33,0.42,0.51,0.61
			c-0.56-0.6-0.06-0.07,0.2,0.28c0.41,0.57,0.8,1.17,1.18,1.76c0.97,1.53,1.87,3.11,2.73,4.7c2.18,4.02,4.17,8.14,6.09,12.29
			c1.07,2.32,2.12,4.66,3.14,7.01c0.26,0.59,0.52,1.19,0.77,1.78c0.13,0.3,0.25,0.6,0.38,0.89c0.08,0.2,0.49,1.15,0.19,0.45
			c0.5,1.18,0.99,2.37,1.48,3.56c1.82,4.43,3.55,8.9,5.13,13.43c1.11,3.19,2.23,6.43,2.91,9.74c0.06,0.28,0.11,0.56,0.16,0.84
			c0.16,0.86-0.03-0.59,0.02,0.13c0.03,0.36-0.02,0.77,0.03,1.12c0,0.03,0.2-0.81,0.01-0.25c-0.08,0.23,0.38-0.77,0.18-0.44
			c-0.16,0.27,0.54-0.63,0.29-0.38c0.44-0.43,0.97-0.64,1.49-0.63c0.55,0,0.46,0.05,0.88,0.23c-0.13-0.06-0.24-0.14-0.35-0.22
			c0.76,0.55,0.25,0.2-0.03-0.07c-0.42-0.4-0.79-0.84-1.16-1.28c-0.11-0.14-0.22-0.28-0.34-0.42c-0.36-0.44,0.39,0.52,0.03,0.04
			c-0.28-0.38-0.57-0.76-0.85-1.15c-0.63-0.88-1.23-1.77-1.82-2.67c-2.94-4.47-5.73-9.05-8.43-13.67
			c-3.54-6.07-6.84-12.32-9.24-18.94c-1.2-3.33-2.17-6.73-2.88-10.19c-0.27-1.32-1.84-2.09-3.08-1.75
			C163.02,1526.99,162.38,1528.36,162.65,1529.69z"/>
	</g>
</g>
<g class="st12">
	<g class="st13">
		<path class="st10" d="M221.66,1567.16c2.45,4.4,4.91,8.79,7.36,13.19c0.11,0.19,0.21,0.38,0.32,0.57
			c1.44-0.84,2.88-1.68,4.32-2.52c-1.73-3.1-3.46-6.21-5.2-9.31c-2.75-4.93-5.51-9.86-8.26-14.8c-0.64-1.14-1.27-2.28-1.91-3.41
			c-1.57-2.81-5.89-0.29-4.32,2.52c1.48,2.64,2.95,5.29,4.43,7.93C219.49,1563.28,220.57,1565.22,221.66,1567.16
			c1.57,2.81,5.89,0.29,4.32-2.52c-2.45-4.4-4.91-8.79-7.36-13.19c-0.11-0.19-0.21-0.38-0.32-0.57c-1.44,0.84-2.88,1.68-4.32,2.52
			c1.73,3.1,3.46,6.21,5.2,9.31c2.75,4.93,5.51,9.86,8.26,14.8c0.64,1.14,1.27,2.28,1.91,3.41c1.57,2.81,5.89,0.29,4.32-2.52
			c-1.48-2.64-2.95-5.29-4.43-7.93c-1.08-1.94-2.17-3.89-3.25-5.83C224.4,1561.83,220.08,1564.35,221.66,1567.16z"/>
	</g>
</g>
<g>
	<g>
		<path class="st7" d="M92.52,185.74c3.22,0,3.22-5,0-5C89.3,180.74,89.3,185.74,92.52,185.74L92.52,185.74z"/>
	</g>
</g>
</svg>
